<svg xmlns="http://www.w3.org/2000/svg" xmlns:xlink="http://www.w3.org/1999/xlink" width="40" zoomAndPan="magnify" viewBox="0 0 30 30.000001" height="40" preserveAspectRatio="xMidYMid meet" version="1.0"><defs><clipPath id="ff0d7b97a8"><path d="M 10 1.632812 L 20 1.632812 L 20 13 L 10 13 Z M 10 1.632812 " clip-rule="nonzero"/></clipPath><clipPath id="07f9e77331"><path d="M 0.484375 8 L 29.515625 8 L 29.515625 27.761719 L 0.484375 27.761719 Z M 0.484375 8 " clip-rule="nonzero"/></clipPath><clipPath id="d28f0b12db"><path d="M 0.484375 8 L 16 8 L 16 19 L 0.484375 19 Z M 0.484375 8 " clip-rule="nonzero"/></clipPath><clipPath id="f8c64dd9ec"><path d="M 15 18 L 29.515625 18 L 29.515625 27.761719 L 15 27.761719 Z M 15 18 " clip-rule="nonzero"/></clipPath></defs><g clip-path="url(#ff0d7b97a8)"><path fill="#a42f1b" d="M 12.089844 12.53125 C 12.089844 12.53125 11.929688 11.664062 12.734375 11.3125 C 13.542969 10.957031 13.453125 10.109375 13.453125 10.109375 C 13.453125 10.109375 13.933594 10.597656 13.875 11.191406 C 13.816406 11.789062 14.03125 11.914062 14.160156 11.941406 C 14.292969 11.964844 14.90625 11.988281 14.917969 10.914062 C 14.929688 9.832031 14.234375 9.421875 15.117188 8.363281 C 15.117188 8.363281 15.101562 9.496094 15.765625 9.824219 C 16.421875 10.144531 16.859375 10.386719 16.859375 10.917969 C 16.859375 11.449219 16.421875 11.347656 16.371094 11.832031 C 16.320312 12.328125 16.644531 12.433594 16.921875 12.382812 C 17.195312 12.332031 17.449219 12.046875 17.425781 11.570312 C 17.402344 11.09375 17.355469 10.277344 18.4375 10.042969 C 18.4375 10.042969 17.960938 10.363281 18.09375 11.152344 C 18.21875 11.941406 18.25 12.207031 18.015625 12.539062 C 18.015625 12.539062 19.0625 11.929688 19.578125 10.226562 C 20.09375 8.519531 18.644531 7.847656 18.414062 7.109375 C 18.1875 6.371094 18.472656 5.71875 18.902344 5.597656 C 18.902344 5.597656 18.285156 5.253906 17.726562 5.597656 C 17.171875 5.941406 17.085938 6.710938 17.171875 7.15625 C 17.257812 7.601562 17.253906 8.308594 16.679688 8.347656 C 16.113281 8.386719 15.402344 7.5625 15.625 6.132812 C 15.851562 4.699219 16.835938 2.054688 14.105469 1.636719 C 14.105469 1.636719 14.785156 2.320312 14.785156 3.148438 C 14.785156 3.980469 14.539062 4.171875 14.328125 4.230469 C 14.117188 4.289062 13.359375 4.058594 13.835938 3.136719 C 13.835938 3.136719 13.085938 3.355469 12.863281 4.417969 C 12.636719 5.484375 13.285156 6.445312 13.410156 6.625 C 13.539062 6.796875 14.011719 7.601562 13.65625 8.5 C 13.300781 9.402344 12.425781 9.292969 12.359375 8.695312 C 12.289062 8.101562 13.078125 7.066406 11.917969 6.371094 C 11.917969 6.371094 12.175781 7.082031 11.296875 7.855469 C 10.421875 8.628906 10.238281 11.003906 12.089844 12.53125 Z M 12.089844 12.53125 " fill-opacity="1" fill-rule="nonzero"/></g><g clip-path="url(#07f9e77331)"><path fill="#ff914d" d="M 29.269531 10.117188 C 28.886719 10.207031 27.902344 10.535156 26.011719 11.769531 C 26.011719 11.769531 23.480469 13.527344 23.039062 12.710938 C 22.613281 11.886719 25.28125 10.398438 25.28125 10.398438 C 27.207031 9.242188 27.964844 8.484375 28.226562 8.167969 C 28.25 8.140625 28.214844 8.089844 28.1875 8.117188 C 27.792969 8.386719 26.675781 8.910156 25.679688 9.390625 C 25.335938 9.5625 24.976562 9.6875 24.617188 9.800781 C 23.675781 10.082031 20.511719 11.421875 19.9375 13.601562 C 19.886719 13.808594 19.765625 13.988281 19.59375 14.09375 L 9.542969 20.375 L 9.765625 21.21875 L 9.371094 20.480469 L 9.25 20.25 C 9.203125 20.167969 9.105469 20.140625 9.027344 20.179688 L 8.898438 20.253906 L 1.496094 24.664062 C 0.792969 25.082031 0.484375 25.957031 0.828125 26.597656 C 1.171875 27.246094 2.023438 27.394531 2.710938 26.941406 L 10.050781 22.117188 C 10.125 22.066406 10.152344 21.957031 10.109375 21.875 L 9.988281 21.652344 L 20.210938 15.257812 C 20.382812 15.148438 20.589844 15.125 20.78125 15.183594 C 22.8125 15.734375 25.460938 13.429688 26.15625 12.699219 C 26.425781 12.40625 26.710938 12.136719 27.015625 11.898438 C 27.894531 11.203125 28.875 10.414062 29.289062 10.183594 C 29.328125 10.15625 29.308594 10.105469 29.269531 10.117188 Z M 3.039062 25.699219 L 2.257812 26.347656 C 2.132812 26.457031 1.964844 26.496094 1.8125 26.460938 C 1.667969 26.433594 1.546875 26.335938 1.472656 26.199219 C 1.398438 26.0625 1.382812 25.902344 1.433594 25.746094 C 1.484375 25.585938 1.601562 25.453125 1.75 25.386719 L 2.660156 24.980469 C 2.796875 24.914062 2.984375 25.011719 3.082031 25.195312 C 3.175781 25.378906 3.15625 25.601562 3.039062 25.699219 Z M 3.039062 25.699219 " fill-opacity="1" fill-rule="nonzero"/></g><g clip-path="url(#d28f0b12db)"><path fill="#ff914d" d="M 15.671875 18.101562 L 11.292969 15.574219 C 10.214844 14.941406 9.949219 14.484375 9.769531 13.871094 C 9.710938 13.664062 9.710938 13.453125 9.746094 13.242188 C 9.839844 12.628906 9.605469 12.003906 9.132812 11.585938 L 5.535156 8.4375 C 5.074219 8.039062 4.40625 7.988281 3.902344 8.335938 C 3.335938 8.726562 2.589844 9.453125 1.796875 10.832031 C 1 12.207031 0.742188 13.21875 0.691406 13.90625 C 0.644531 14.511719 1.023438 15.070312 1.59375 15.269531 L 6.125 16.804688 C 6.71875 17.007812 7.378906 16.894531 7.863281 16.511719 C 8.03125 16.378906 8.210938 16.265625 8.417969 16.214844 C 9.039062 16.058594 9.570312 16.066406 10.652344 16.683594 L 14.441406 18.871094 Z M 5.960938 15.675781 C 5.957031 15.679688 5.957031 15.691406 5.953125 15.699219 C 5.882812 15.835938 5.710938 15.898438 5.566406 15.839844 L 2.230469 14.421875 C 2.074219 14.359375 2 14.179688 2.0625 14.027344 C 2.070312 14.019531 2.070312 14.007812 2.074219 14.003906 C 2.144531 13.867188 2.316406 13.804688 2.460938 13.859375 L 5.800781 15.273438 C 5.953125 15.34375 6.027344 15.519531 5.960938 15.675781 Z M 6.523438 14.714844 C 6.519531 14.71875 6.519531 14.730469 6.511719 14.738281 C 6.433594 14.867188 6.265625 14.925781 6.125 14.855469 L 2.503906 13.152344 C 2.355469 13.082031 2.289062 12.898438 2.355469 12.75 C 2.363281 12.746094 2.363281 12.734375 2.367188 12.726562 C 2.449219 12.59375 2.613281 12.539062 2.757812 12.605469 L 6.375 14.3125 C 6.523438 14.382812 6.59375 14.566406 6.523438 14.714844 Z M 7.023438 13.847656 C 6.9375 13.992188 6.753906 14.042969 6.609375 13.957031 L 2.933594 11.839844 C 2.792969 11.753906 2.738281 11.570312 2.824219 11.425781 C 2.910156 11.285156 3.09375 11.234375 3.238281 11.320312 L 6.914062 13.4375 C 7.054688 13.515625 7.109375 13.707031 7.023438 13.847656 Z M 7.539062 12.957031 C 7.53125 12.960938 7.527344 12.972656 7.519531 12.980469 C 7.421875 13.117188 7.234375 13.152344 7.097656 13.054688 L 3.804688 10.769531 C 3.679688 10.675781 3.636719 10.503906 3.71875 10.367188 C 3.722656 10.363281 3.730469 10.351562 3.734375 10.34375 C 3.832031 10.207031 4.023438 10.171875 4.160156 10.269531 L 7.453125 12.554688 C 7.578125 12.648438 7.613281 12.824219 7.539062 12.957031 Z M 8.09375 11.996094 C 8.085938 12 8.082031 12.011719 8.074219 12.015625 C 7.972656 12.148438 7.785156 12.171875 7.652344 12.070312 L 4.753906 9.882812 C 4.632812 9.785156 4.601562 9.605469 4.6875 9.480469 C 4.691406 9.476562 4.699219 9.464844 4.703125 9.457031 C 4.804688 9.328125 4.996094 9.304688 5.128906 9.40625 L 8.023438 11.59375 C 8.144531 11.691406 8.179688 11.867188 8.09375 11.996094 Z M 8.09375 11.996094 " fill-opacity="1" fill-rule="nonzero"/></g><g clip-path="url(#f8c64dd9ec)"><path fill="#ff914d" d="M 28.472656 24.785156 L 20.722656 20.53125 C 20.640625 20.492188 20.539062 20.511719 20.492188 20.59375 L 20.367188 20.8125 L 16.296875 18.464844 L 15.066406 19.238281 L 19.546875 21.824219 L 20.125 21.222656 L 19.71875 21.921875 L 19.59375 22.132812 C 19.546875 22.214844 19.578125 22.316406 19.652344 22.363281 L 19.777344 22.4375 L 27.214844 26.949219 C 27.925781 27.378906 28.800781 27.242188 29.15625 26.621094 C 29.515625 26.015625 29.207031 25.183594 28.472656 24.785156 Z M 28.503906 26.25 C 28.429688 26.382812 28.300781 26.472656 28.152344 26.5 C 27.992188 26.535156 27.828125 26.496094 27.695312 26.394531 L 26.894531 25.773438 C 26.769531 25.675781 26.75 25.472656 26.855469 25.292969 C 26.957031 25.121094 27.144531 25.03125 27.289062 25.085938 L 28.222656 25.476562 C 28.375 25.539062 28.492188 25.664062 28.546875 25.820312 C 28.59375 25.964844 28.578125 26.117188 28.503906 26.25 Z M 28.503906 26.25 " fill-opacity="1" fill-rule="nonzero"/></g></svg>